<svg xmlns="http://www.w3.org/2000/svg" viewBox="0 0 1920 1080" width="1920" height="1080" font-family="Segoe UI, Helvetica, Arial, sans-serif">
  <defs>
    <marker id="a" viewBox="0 0 10 10" refX="8" refY="5" markerWidth="6" markerHeight="6" orient="auto"><path d="M0,0 L10,5 L0,10 z" fill="#57606a"/></marker>
  </defs>
  <rect width="1920" height="1080" fill="#ffffff"/>
  <g fill="#24292f">
    <rect x="80" y="70" width="760" height="630" rx="24" fill="#eaf2ff" stroke="#8c959f" stroke-width="2"/>
    <text x="460" y="145" text-anchor="middle" font-size="40" font-weight="600">Your IDE</text>
    <g font-size="30">
      <rect x="120" y="190" width="680" height="90" rx="16" fill="#ffffff" stroke="#8c959f" stroke-width="2"/><text x="150" y="246">Terminal output</text>
      <rect x="120" y="300" width="680" height="90" rx="16" fill="#ffffff" stroke="#8c959f" stroke-width="2"/><text x="150" y="356">Problems diagnostics</text>
      <rect x="120" y="410" width="680" height="90" rx="16" fill="#ffffff" stroke="#8c959f" stroke-width="2"/><text x="150" y="466">Extension-provided tools</text>
      <rect x="120" y="520" width="680" height="90" rx="16" fill="#ffffff" stroke="#8c959f" stroke-width="2"/><text x="150" y="576">Local credentials</text>
    </g>
    <rect x="1080" y="70" width="760" height="630" rx="24" fill="#f3edff" stroke="#8c959f" stroke-width="2"/>
    <text x="1460" y="145" text-anchor="middle" font-size="40" font-weight="600">Cloud session</text>
    <g font-size="30">
      <rect x="1120" y="190" width="680" height="90" rx="16" fill="#ffffff" stroke="#8c959f" stroke-width="2"/><text x="1150" y="246">Tools of the cloud service</text>
      <rect x="1120" y="300" width="680" height="90" rx="16" fill="#ffffff" stroke="#8c959f" stroke-width="2"/><text x="1150" y="356">Its own MCP servers</text>
      <rect x="1120" y="410" width="680" height="90" rx="16" fill="#ffffff" stroke="#8c959f" stroke-width="2"/><text x="1150" y="466">Its own models</text>
    </g>
    <rect x="80" y="800" width="1760" height="190" rx="24" fill="#e9f7ef" stroke="#8c959f" stroke-width="2"/>
    <text x="960" y="880" text-anchor="middle" font-size="36" font-weight="600" font-family="Consolas, monospace">.github/copilot-instructions.md</text>
    <text x="960" y="940" text-anchor="middle" font-size="30" fill="#57606a">build commands, test commands, conventions</text>
  </g>
  <g stroke="#c24141" stroke-width="4" stroke-dasharray="10 8">
    <line x1="800" y1="235" x2="900" y2="235"/><line x1="800" y1="345" x2="900" y2="345"/>
    <line x1="800" y1="455" x2="900" y2="455"/><line x1="800" y1="565" x2="900" y2="565"/>
  </g>
  <g stroke="#c24141" stroke-width="7" stroke-linecap="round">
    <line x1="915" y1="217" x2="949" y2="253"/><line x1="949" y1="217" x2="915" y2="253"/>
    <line x1="915" y1="327" x2="949" y2="363"/><line x1="949" y1="327" x2="915" y2="363"/>
    <line x1="915" y1="437" x2="949" y2="473"/><line x1="949" y1="437" x2="915" y2="473"/>
    <line x1="915" y1="547" x2="949" y2="583"/><line x1="949" y1="547" x2="915" y2="583"/>
  </g>
  <line x1="1460" y1="800" x2="1460" y2="708" stroke="#57606a" stroke-width="4" marker-end="url(#a)"/>
</svg>
