<svg xmlns="http://www.w3.org/2000/svg" viewBox="0 0 1920 1080" width="1920" height="1080" font-family="Segoe UI, Helvetica, Arial, sans-serif">
  <defs>
    <marker id="a" viewBox="0 0 10 10" refX="8" refY="5" markerWidth="6" markerHeight="6" orient="auto"><path d="M0,0 L10,5 L0,10 z" fill="#57606a"/></marker>
    <marker id="r" viewBox="0 0 10 10" refX="8" refY="5" markerWidth="6" markerHeight="6" orient="auto"><path d="M0,0 L10,5 L0,10 z" fill="#c24141"/></marker>
  </defs>
  <rect width="1920" height="1080" fill="#ffffff"/>

  <g fill="#24292f" text-anchor="middle">
    <rect x="80" y="120" width="780" height="580" rx="28" fill="#eaf2ff" stroke="#8c959f" stroke-width="2"/>
    <text x="470" y="195" font-size="40" font-weight="600">Your application</text>
    <g font-size="30">
      <rect x="120" y="250" width="220" height="90" rx="16" fill="#ffffff" stroke="#8c959f" stroke-width="2"/><text x="230" y="306">TypeScript</text>
      <rect x="360" y="250" width="220" height="90" rx="16" fill="#ffffff" stroke="#8c959f" stroke-width="2"/><text x="470" y="306">Python</text>
      <rect x="600" y="250" width="220" height="90" rx="16" fill="#ffffff" stroke="#8c959f" stroke-width="2"/><text x="710" y="306">Go</text>
      <rect x="120" y="370" width="220" height="90" rx="16" fill="#ffffff" stroke="#8c959f" stroke-width="2"/><text x="230" y="426">.NET</text>
      <rect x="360" y="370" width="220" height="90" rx="16" fill="#ffffff" stroke="#8c959f" stroke-width="2"/><text x="470" y="426">Java</text>
      <rect x="600" y="370" width="220" height="90" rx="16" fill="#ffffff" stroke="#8c959f" stroke-width="2"/><text x="710" y="426">Rust</text>
    </g>
    <rect x="120" y="530" width="700" height="120" rx="16" fill="#ffffff" stroke="#8c959f" stroke-width="2"/>
    <text x="470" y="583" font-size="28" font-family="Consolas, monospace">CopilotClient → session</text>
    <text x="470" y="625" font-size="26" fill="#57606a" font-family="Consolas, monospace">sendAndWait()  ·  defineTool()</text>
    <text x="956" y="385" font-size="26" font-weight="600" fill="#57606a">JSON-RPC</text>
    <rect x="1060" y="200" width="400" height="420" rx="28" fill="#f3edff" stroke="#8c959f" stroke-width="2"/>
    <text x="1260" y="370" font-size="40" font-weight="600">Copilot CLI</text>
    <text x="1260" y="420" font-size="28" fill="#57606a">server mode</text>
    <text x="1260" y="490" font-size="26" fill="#57606a">plans, calls tools,</text>
    <text x="1260" y="526" font-size="26" fill="#57606a">executes</text>
    <rect x="1600" y="300" width="240" height="220" rx="24" fill="#f6f8fa" stroke="#8c959f" stroke-width="2"/>
    <text x="1720" y="425" font-size="40" font-weight="600">Model</text>
    <rect x="80" y="820" width="820" height="80" rx="40" fill="#e9f7ef" stroke="#8c959f" stroke-width="2"/>
    <text x="490" y="872" font-size="28" font-weight="600">CLI bundled: Node.js  ·  Python  ·  .NET</text>
    <rect x="1000" y="820" width="840" height="80" rx="40" fill="#fff6e5" stroke="#e0a534" stroke-width="2"/>
    <text x="1420" y="872" font-size="28" font-weight="600"><tspan font-family="Consolas, monospace">copilot</tspan> on PATH: Go  ·  Java  ·  Rust</text>
  </g>
  <g stroke="#57606a" stroke-width="4" marker-end="url(#a)">
    <line x1="860" y1="410" x2="1052" y2="410"/>
    <line x1="1460" y1="410" x2="1592" y2="410"/>
  </g>
</svg>
